<?xml version="1.0" encoding="UTF-8" standalone="no" ?>
<!DOCTYPE svg PUBLIC "-//W3C//DTD SVG 1.1//EN" "http://www.w3.org/Graphics/SVG/1.1/DTD/svg11.dtd">
<svg xmlns="http://www.w3.org/2000/svg" xmlns:xlink="http://www.w3.org/1999/xlink" version="1.1" width="1280" height="1024" viewBox="0 0 1280 1024" xml:space="preserve">
<desc>Created with Fabric.js 5.3.0</desc>
<defs>
</defs>
<g transform="matrix(1 0 0 1 640 512)" id="background-logo"  >
<rect style="stroke: none; stroke-width: 0; stroke-dasharray: none; stroke-linecap: butt; stroke-dashoffset: 0; stroke-linejoin: miter; stroke-miterlimit: 4; fill: rgb(255,255,255); fill-opacity: 0; fill-rule: nonzero; opacity: 1;"  paint-order="stroke"  x="-640" y="-512" rx="0" ry="0" width="1280" height="1024" />
</g>
<g transform="matrix(1.9211538461538462 0 0 1.9211538461538462 669.5744180851416 484.30709216042106)" id="tagline-83fdfb2a-8044-4ad8-b129-1c6be14b1c43-logo"  >
<g style=""  paint-order="stroke"   >
		<g transform="matrix(1 0 0 1 0 0)" id="tagline-83fdfb2a-8044-4ad8-b129-1c6be14b1c43-logo-path-0"  >
<path style="stroke: rgb(255,255,255); stroke-width: 0; stroke-dasharray: none; stroke-linecap: butt; stroke-dashoffset: 0; stroke-linejoin: miter; stroke-miterlimit: 4; fill: rgb(255,255,255); fill-rule: nonzero; opacity: 1;"  paint-order="stroke"  transform=" translate(-339.75, 171)" d="M 294 -341.5 L 293.5 -342 L 204 -192.5 L 114.5 -342 L 31 -342 L 31 0 L 114.5 0 L 114.5 -189.5 L 194 -56 L 214.5 -56 L 294 -189.5 L 294 0 L 377 0 L 377 -342 L 294 -342 Z M 545 0 L 648.5 0 L 507 -186.5 L 632 -342 L 527 -342 L 422.5 -213.5 L 422.5 -342 L 339 -342 L 339 0 L 422.5 0 L 422.5 -80.5 L 453.5 -119.5 Z" stroke-linecap="round" />
</g>
</g>
</g>
</svg>